<svg width="469" height="114" viewBox="0 0 469 114" fill="none" xmlns="http://www.w3.org/2000/svg">
<path d="M317.88 43.1202C294.361 41.7041 287.386 36.1603 287.386 36.1603L251.531 34.0772C258.644 37.4668 271.347 39.3517 283.988 41.2273L283.989 41.2275C288.13 41.8419 292.263 42.4553 296.191 43.1202H317.88Z" fill="white"/>
<path d="M208.553 35.5028C202.477 39.1568 194.618 41.3125 182.751 42.4444L201.921 41.8737C204.208 41.5011 206.375 41.1623 208.437 40.8401C219.848 39.0564 228.015 37.7798 235.203 34.0772C229.972 35.1398 215.257 35.4704 208.553 35.5028Z" fill="white"/>
<path d="M65.8622 78.4988C65.9949 80.9848 66.8335 86.5035 69.1264 88.6898L77.8127 89.6659C75.7669 88.6629 70.5126 85.0252 65.8622 78.4988Z" fill="white"/>
<path d="M74.8847 80.1009C75.1003 80.5564 75.9877 81.643 77.8127 82.3457C79.6377 83.0485 95.5513 85.9059 105.169 87.7278L105.755 85.1902L74.8847 80.1009Z" fill="white"/>
<path d="M467.972 73.9732V74.7148L463.782 75.1226C462.744 75.2091 460.29 75.7974 458.777 77.4585C457.264 79.1195 457.108 79.6336 457.22 79.6831H466.563C465.451 80.3381 461.795 81.5814 456.07 81.3145L454.068 85.1334L464.969 84.7255C464.734 85.4053 462.114 86.7499 453.512 86.6906C453.475 87.2591 453.534 88.537 454.068 89.1006C454.735 89.8051 462.892 90.0277 465.747 88.7669C465.982 88.5939 466.4 87.9364 466.192 86.6906C466.612 86.7895 467.608 87.3432 468.231 88.7669C468.854 90.1907 464.188 90.9915 461.778 91.214C457.082 91.7948 448.202 91.7034 450.249 86.6906C452.807 80.4246 456.812 71.5262 467.972 73.9732Z" fill="white"/>
<path d="M71.9924 51.2844C71.0004 53.3345 70.1462 56.0516 69.8431 57.1539C74.5724 57.6913 80.5827 55.6004 85.9655 52.9183C86.5424 52.6309 87.112 52.3366 87.6721 52.0382C91.5331 49.9805 94.94 47.7194 97.1235 46.0762C109.377 45.5845 119.297 44.4764 127.157 43.1202C141.375 40.6671 148.858 37.4019 151.239 35.5028C153.823 30.2572 163.265 18.3333 180.364 12.6023C197.463 6.87124 222.721 5.73042 233.212 5.87639L235.203 34.0772L236.043 41.8737H241.741H246.774H253.987L251.531 34.0772L241.741 5.87639C246.087 6.00175 257.962 6.7539 270.699 8.75964C283.435 10.7654 303.668 19.1226 312.193 23.0505C307.429 22.9251 307.053 26.0591 306.551 30.6974C306.15 34.408 310.145 35.3356 312.193 35.3356L330.996 34.3328L336.25 37.3521L287.386 36.1603C287.386 36.1603 294.361 41.7041 317.88 43.1202H341.865C342.401 43.0935 342.937 43.067 343.473 43.0406C385.927 40.9508 426.604 39.8741 427.454 45.1185C427.657 46.3718 428.76 47.8916 430.483 49.5065C431.245 50.2209 432.128 50.9538 433.109 51.6906C437.058 54.6593 442.582 57.6887 448.09 59.8071C456.062 62.8731 460.537 62.3821 461.778 61.7533C464.844 70.406 467.357 71.9438 468.231 71.6311L467.67 68.6004C466.21 68.4882 465.649 66.3555 464.527 61.7533C463.404 57.1512 462.057 50.6408 462.282 48.6203C462.506 46.5999 461.833 46.1509 456.669 43.1202C456.236 42.8659 455.573 42.5863 454.716 42.287C454.426 42.1856 454.113 42.082 453.78 41.9763C443.369 38.6754 412.645 33.3786 404.474 32.6812C397.111 32.0526 365.867 30.2164 351.166 29.3769C349.155 30.5067 343.081 31.6585 334.88 27.2275C326.68 22.7964 307.434 15.1853 298.837 11.9337C291.755 9.42605 274.267 3.96438 260.974 2.17877C248.365 0.484974 236.897 0.314545 228.271 0.186334C225.53 0.145593 223.075 0.109115 220.962 0.029376C213.952 -0.235165 196.768 1.35208 189.052 2.17877C183.954 2.86766 172.27 4.57611 166.318 5.89882C160.366 7.22153 154.248 9.48118 151.933 10.4457C144.659 13.8351 128.538 21.4407 122.255 24.7474C115.972 28.0542 109.056 30.2036 106.383 30.865C98.3087 32.6286 81.7474 36.222 80.094 36.4865C78.3888 36.7593 77.8091 38.214 76.962 40.3396C76.7824 40.7903 76.5908 41.2712 76.3739 41.7774C75.1338 44.6708 73.2324 48.7216 71.9924 51.2844Z" fill="white"/>
<path fill-rule="evenodd" clip-rule="evenodd" d="M208.437 40.8401C219.848 39.0564 228.015 37.7798 235.203 34.0772C229.972 35.1398 215.257 35.4704 208.553 35.5028C202.477 39.1568 194.618 41.3125 182.751 42.4444L201.921 41.8737C204.208 41.5011 206.375 41.1623 208.437 40.8401ZM287.386 36.1603C287.386 36.1603 294.361 41.7041 317.88 43.1202H296.191C292.263 42.4553 288.13 41.8419 283.989 41.2275L283.988 41.2273C271.347 39.3517 258.644 37.4668 251.531 34.0772L287.386 36.1603Z" fill="white"/>
<path d="M236.043 41.8737L235.203 34.0772C228.015 37.7798 219.848 39.0564 208.437 40.8401C206.375 41.1623 204.208 41.5011 201.921 41.8737H236.043Z" fill="white"/>
<path d="M251.531 34.0772L253.987 41.8737L296.191 43.1202C292.263 42.4553 288.13 41.8419 283.989 41.2275L283.988 41.2273C271.347 39.3517 258.644 37.4668 251.531 34.0772Z" fill="white"/>
<path d="M151.239 35.5028C148.858 37.4019 141.375 40.6671 127.157 43.1202C134.192 43.2812 140.636 43.3954 146.55 43.4493C147.198 43.4553 147.839 43.4604 148.475 43.4649L182.751 42.4444C194.618 41.3125 202.477 39.1568 208.553 35.5028C209.012 35.227 190.581 35.3245 173.217 35.4164C164.923 35.4603 156.872 35.5028 151.239 35.5028Z" fill="white"/>
<path d="M241.741 41.8737C243.29 50.4178 246.466 74.0132 246.774 89.1333H248.683C249.804 78.0581 248.189 53.3321 246.774 41.8737H241.741Z" fill="white"/>
<path d="M427.454 45.1185C417.305 43.0816 379.644 42.1466 371.514 68.6004C375.306 62.0315 385.104 52.3994 400.841 49.2173C405.468 48.2816 410.609 47.9036 416.262 48.3252C421.448 48.712 427.063 49.7715 433.109 51.6906C432.128 50.9538 431.245 50.2209 430.483 49.5065C428.76 47.8916 427.657 46.3718 427.454 45.1185Z" fill="white"/>
<path fill-rule="evenodd" clip-rule="evenodd" d="M248.683 89.1333H246.774L179.331 90.6133L253.987 91.8246L329.633 92.8425L365.766 93.8603C359.032 93.5524 345.422 91.5001 340.929 90.6133C343.873 83.7502 349.252 62.9608 343.473 43.0406C342.937 43.067 342.401 43.0935 341.865 43.1202C344.224 50.7129 346.005 72.5078 338.826 90.6133L248.683 89.1333ZM157.164 52.9183L156.418 52.7121L153.98 52.0382C153.556 51.7104 153.152 51.3871 152.769 51.0685C149.173 48.0827 147.317 45.5041 146.55 43.4493C147.198 43.4553 147.839 43.4604 148.475 43.4649C151.799 50.4225 155.1 52.1269 157.164 52.9183Z" fill="white"/>
<path d="M138.436 12.6023L51.9212 18.3782H125.95L138.436 12.6023Z" fill="white"/>
<path d="M113.463 24.7474L28.4615 30.865H85.9655L113.463 24.7474Z" fill="white"/>
<path d="M74.5243 38.3944L71.9924 43.4649H0L74.5243 38.3944Z" fill="white"/>
<path d="M153.98 52.0382C153.556 51.7104 153.152 51.3871 152.769 51.0685C149.913 49.8963 144.008 47.9681 134.803 49.6072C124.553 51.4325 112.792 58.9657 108.877 71.7077C116.315 59.3749 124.798 54.9315 136.636 52.5377C145.846 50.6755 164.573 55.3356 172.042 72.6018C180.467 101.12 153.896 111.944 140.955 113.045C165.004 113.979 173.807 98.4797 175.203 90.6133C180.147 70.3801 166.124 57.7005 156.418 52.7121L153.98 52.0382Z" fill="white"/>
<path d="M416.262 48.3252C410.609 47.9036 405.468 48.2816 400.841 49.2173C409.463 48.8053 423.849 51.8205 431.914 63.8745C448.09 92.3983 419.071 110.941 404.474 112.035C428.261 112.593 435.786 95.9137 437.841 87.5061C443.286 65.2222 425.724 52.1006 416.262 48.3252Z" fill="white"/>
</svg>
