<svg width="862" height="238" viewBox="0 0 862 238" fill="none" xmlns="http://www.w3.org/2000/svg">
<path fill-rule="evenodd" clip-rule="evenodd" d="M0 123.945C18.9319 126.096 47.3288 108.826 59.1608 99.9216C85.7348 98.8552 107.246 96.4523 124.293 93.5112C229.063 95.9096 273.34 93.5112 300.809 76.992C301.803 76.3939 261.834 76.6053 224.178 76.8045C206.191 76.8997 188.732 76.992 176.517 76.992C182.12 65.6163 202.597 39.7578 239.678 27.3295C276.759 14.9011 331.533 12.4271 354.284 12.7436H372.781C382.205 13.0155 407.959 14.6466 435.579 18.9963C463.199 23.346 507.077 41.4696 525.563 49.9877C515.232 49.7158 514.417 56.5122 513.329 66.5708C512.459 74.6177 521.122 76.6294 525.563 76.6294L566.341 74.4546L577.734 81.0025L471.766 78.4179C471.766 78.4179 496.599 98.1546 589.912 93.5112C683.224 88.8677 773.654 86.3282 775.521 97.8446C775.962 100.563 778.354 103.859 782.09 107.361C783.742 108.91 785.658 110.499 787.784 112.097C796.349 118.535 808.328 125.105 820.273 129.699C837.56 136.348 847.264 135.283 849.956 133.919C854.676 147.24 858.792 152.785 861.461 154.638L858.426 143.296C857.65 140.966 856.879 137.86 855.917 133.919C853.483 123.939 850.562 109.82 851.049 105.439C851.536 101.057 850.075 100.084 838.878 93.5112C827.68 86.9388 745.647 72.5768 725.686 70.8729C709.718 69.5097 641.963 65.5278 610.082 63.7072C605.719 66.1573 592.549 68.6552 574.764 59.0459C556.98 49.4367 515.244 32.9312 496.599 25.8796C481.241 20.4415 443.318 8.59723 414.49 4.72491C387.144 1.05172 362.277 0.682128 343.569 0.404086C337.625 0.315735 332.302 0.236628 327.719 0.0637053C312.517 -0.509984 275.251 2.93214 258.518 4.72491C247.463 6.21885 222.125 9.92384 209.217 12.7923C196.309 15.6607 183.042 20.561 178.023 22.6526C162.246 30.003 127.287 46.4966 113.662 53.6677C100.037 60.8388 85.0372 65.5001 79.2406 66.9344C61.7311 70.7589 25.8158 78.5515 22.2303 79.1252C18.5324 79.7169 17.2753 82.8714 15.4383 87.4811C15.0488 88.4586 14.6332 89.5014 14.1628 90.5992C11.4736 96.8739 7.35023 105.658 4.66106 111.216C2.50973 115.662 0.657299 121.554 0 123.945Z" fill="url(#paint0_linear_285_13)"/>
<path d="M723.559 192.746H734.72V226.88H755.647V237.204H723.559V192.746Z" fill="url(#paint1_linear_285_13)"/>
<path d="M723.559 192.746H734.72V226.88H755.647V237.204H723.559V192.746Z" fill="#F2A500"/>
<path d="M783.58 192.746H795.796L777.814 237.204H766.715L748.702 192.746H760.917L772.264 222.602L783.58 192.746Z" fill="url(#paint2_linear_285_13)"/>
<path d="M783.58 192.746H795.796L777.814 237.204H766.715L748.702 192.746H760.917L772.264 222.602L783.58 192.746Z" fill="#F2A500"/>
<path d="M799.516 237.204V192.746H810.677V237.204H799.516Z" fill="url(#paint3_linear_285_13)"/>
<path d="M799.516 237.204V192.746H810.677V237.204H799.516Z" fill="#F2A500"/>
<path d="M849.245 192.746H861.46L843.478 237.204H832.379L814.366 192.746H826.582L837.929 222.602L849.245 192.746Z" fill="url(#paint4_linear_285_13)"/>
<path d="M849.245 192.746H861.46L843.478 237.204H832.379L814.366 192.746H826.582L837.929 222.602L849.245 192.746Z" fill="#F2A500"/>
<path d="M0 154.639H73.0077V173.639H46.8102V237.204H26.0824V173.639H0V154.639Z" fill="url(#paint5_linear_285_13)"/>
<path d="M0 154.639H73.0077V173.639H46.8102V237.204H26.0824V173.639H0V154.639Z" fill="black" style="mix-blend-mode:overlay"/>
<path d="M104.618 237.204H83.9474V154.639H125.748C133.003 154.639 138.012 155.963 142.158 158.611C149.009 162.93 153.5 170.472 153.5 180.145C153.5 186.364 151.485 191.833 148.088 196.152C145.67 199.146 142.215 201.449 138.53 202.946L159.085 237.204H135.133L116.939 205.537H104.618V237.204ZM104.618 186.709H124.079C126.554 186.709 127.706 186.536 128.8 186.076C131.161 185.097 133.118 183.139 133.118 180.145C133.118 177.266 131.276 175.251 128.8 174.215C127.764 173.754 126.554 173.582 124.079 173.582H104.618V186.709Z" fill="url(#paint6_linear_285_13)"/>
<path d="M104.618 237.204H83.9474V154.639H125.748C133.003 154.639 138.012 155.963 142.158 158.611C149.009 162.93 153.5 170.472 153.5 180.145C153.5 186.364 151.485 191.833 148.088 196.152C145.67 199.146 142.215 201.449 138.53 202.946L159.085 237.204H135.133L116.939 205.537H104.618V237.204ZM104.618 186.709H124.079C126.554 186.709 127.706 186.536 128.8 186.076C131.161 185.097 133.118 183.139 133.118 180.145C133.118 177.266 131.276 175.251 128.8 174.215C127.764 173.754 126.554 173.582 124.079 173.582H104.618V186.709Z" fill="black" style="mix-blend-mode:overlay"/>
<path d="M221.902 237.204L217.469 224.768H185.225L180.85 237.204H158.913L191.444 154.639H211.365L243.781 237.204H221.902ZM201.405 179.857L192.02 206.285H210.732L201.405 179.857Z" fill="url(#paint7_linear_285_13)"/>
<path d="M221.902 237.204L217.469 224.768H185.225L180.85 237.204H158.913L191.444 154.639H211.365L243.781 237.204H221.902ZM201.405 179.857L192.02 206.285H210.732L201.405 179.857Z" fill="black" style="mix-blend-mode:overlay"/>
<path d="M326.75 237.204H315.062L271.303 190.624V237.204H250.691V154.639H262.321L306.137 201.219V154.639H326.75V237.204Z" fill="url(#paint8_linear_285_13)"/>
<path d="M326.75 237.204H315.062L271.303 190.624V237.204H250.691V154.639H262.321L306.137 201.219V154.639H326.75V237.204Z" fill="black" style="mix-blend-mode:overlay"/>
<path d="M336.768 222.695L349.032 207.782C355.884 213.77 364.175 218.204 372.581 218.204C377.763 218.204 384.903 216.649 384.903 211.755C384.903 206.17 375.115 205.306 364.636 203.176C351.163 200.412 337.517 195.461 337.517 179.915C337.517 165.809 348.341 154.639 367.86 154.639C378.396 154.639 389.566 158.151 399.412 165.578L387.782 180.376C382.139 175.885 374.366 173.236 367.63 173.236C363.254 173.236 357.611 174.33 357.611 178.073C357.611 182.103 364.002 183.197 374.021 184.867C388.185 187.17 405.17 191.661 405.17 211.41C405.17 226.38 390.948 237.204 372.869 237.204C361.987 237.204 348.975 233.231 336.768 222.695Z" fill="url(#paint9_linear_285_13)"/>
<path d="M336.768 222.695L349.032 207.782C355.884 213.77 364.175 218.204 372.581 218.204C377.763 218.204 384.903 216.649 384.903 211.755C384.903 206.17 375.115 205.306 364.636 203.176C351.163 200.412 337.517 195.461 337.517 179.915C337.517 165.809 348.341 154.639 367.86 154.639C378.396 154.639 389.566 158.151 399.412 165.578L387.782 180.376C382.139 175.885 374.366 173.236 367.63 173.236C363.254 173.236 357.611 174.33 357.611 178.073C357.611 182.103 364.002 183.197 374.021 184.867C388.185 187.17 405.17 191.661 405.17 211.41C405.17 226.38 390.948 237.204 372.869 237.204C361.987 237.204 348.975 233.231 336.768 222.695Z" fill="black" style="mix-blend-mode:overlay"/>
<path d="M415.131 154.639H474.896V173.409H435.743V183.024H465.338V201.622H435.743V237.204H415.131V154.639Z" fill="url(#paint10_linear_285_13)"/>
<path d="M415.131 154.639H474.896V173.409H435.743V183.024H465.338V201.622H435.743V237.204H415.131V154.639Z" fill="black" style="mix-blend-mode:overlay"/>
<path d="M486.296 154.639H546.061V173.409H506.908V182.967H536.503V201.449H506.908V218.204H546.061V237.204H486.296V154.639Z" fill="url(#paint11_linear_285_13)"/>
<path d="M486.296 154.639H546.061V173.409H506.908V182.967H536.503V201.449H506.908V218.204H546.061V237.204H486.296V154.639Z" fill="black" style="mix-blend-mode:overlay"/>
<path d="M579.513 237.204H558.843V154.639H600.644C607.899 154.639 612.908 155.963 617.053 158.611C623.905 162.93 628.396 170.472 628.396 180.145C628.396 186.364 626.381 191.833 622.984 196.152C620.566 199.146 617.111 201.449 613.426 202.946L633.981 237.204H610.029L591.835 205.537H579.513V237.204ZM579.513 186.709H598.974C601.45 186.709 602.602 186.536 603.695 186.076C606.056 185.097 608.014 183.139 608.014 180.145C608.014 177.266 606.171 175.251 603.695 174.215C602.659 173.754 601.45 173.582 598.974 173.582H579.513V186.709Z" fill="url(#paint12_linear_285_13)"/>
<path d="M579.513 237.204H558.843V154.639H600.644C607.899 154.639 612.908 155.963 617.053 158.611C623.905 162.93 628.396 170.472 628.396 180.145C628.396 186.364 626.381 191.833 622.984 196.152C620.566 199.146 617.111 201.449 613.426 202.946L633.981 237.204H610.029L591.835 205.537H579.513V237.204ZM579.513 186.709H598.974C601.45 186.709 602.602 186.536 603.695 186.076C606.056 185.097 608.014 183.139 608.014 180.145C608.014 177.266 606.171 175.251 603.695 174.215C602.659 173.754 601.45 173.582 598.974 173.582H579.513V186.709Z" fill="black" style="mix-blend-mode:overlay"/>
<path d="M642.756 222.695L655.02 207.782C661.871 213.77 670.162 218.204 678.569 218.204C683.751 218.204 690.89 216.649 690.89 211.755C690.89 206.17 681.102 205.306 670.623 203.176C657.15 200.412 643.504 195.461 643.504 179.915C643.504 165.809 654.329 154.639 673.847 154.639C684.384 154.639 695.554 158.151 705.4 165.578L693.769 180.376C688.126 175.885 680.354 173.236 673.617 173.236C669.241 173.236 663.599 174.33 663.599 178.073C663.599 182.103 669.99 183.197 680.008 184.867C694.172 187.17 711.157 191.661 711.157 211.41C711.157 226.38 696.936 237.204 678.857 237.204C667.975 237.204 654.962 233.231 642.756 222.695Z" fill="url(#paint13_linear_285_13)"/>
<path d="M642.756 222.695L655.02 207.782C661.871 213.77 670.162 218.204 678.569 218.204C683.751 218.204 690.89 216.649 690.89 211.755C690.89 206.17 681.102 205.306 670.623 203.176C657.15 200.412 643.504 195.461 643.504 179.915C643.504 165.809 654.329 154.639 673.847 154.639C684.384 154.639 695.554 158.151 705.4 165.578L693.769 180.376C688.126 175.885 680.354 173.236 673.617 173.236C669.241 173.236 663.599 174.33 663.599 178.073C663.599 182.103 669.99 183.197 680.008 184.867C694.172 187.17 711.157 191.661 711.157 211.41C711.157 226.38 696.936 237.204 678.857 237.204C667.975 237.204 654.962 233.231 642.756 222.695Z" fill="black" style="mix-blend-mode:overlay"/>
<defs>
<linearGradient id="paint0_linear_285_13" x1="602.347" y1="-184.429" x2="730.717" y2="266.431" gradientUnits="userSpaceOnUse">
<stop stop-color="#EDEDED"/>
<stop offset="0.3049" stop-color="#CFCFCF"/>
<stop offset="0.5386" stop-color="#999999"/>
<stop offset="0.5731" stop-color="#ACACAC"/>
<stop offset="0.6328" stop-color="#C7C7C7"/>
<stop offset="0.6983" stop-color="#DBDBDB"/>
<stop offset="0.7718" stop-color="#EAEAEA"/>
<stop offset="0.8597" stop-color="#F2F2F2"/>
<stop offset="1" stop-color="#F5F5F5"/>
</linearGradient>
<linearGradient id="paint1_linear_285_13" x1="597.721" y1="-8.73271" x2="915.7" y2="138.649" gradientUnits="userSpaceOnUse">
<stop stop-color="#EDEDED"/>
<stop offset="0.3049" stop-color="#CFCFCF"/>
<stop offset="0.5386" stop-color="#999999"/>
<stop offset="0.5731" stop-color="#ACACAC"/>
<stop offset="0.6328" stop-color="#C7C7C7"/>
<stop offset="0.6983" stop-color="#DBDBDB"/>
<stop offset="0.7718" stop-color="#EAEAEA"/>
<stop offset="0.8597" stop-color="#F2F2F2"/>
<stop offset="1" stop-color="#F5F5F5"/>
</linearGradient>
<linearGradient id="paint2_linear_285_13" x1="597.721" y1="-8.73271" x2="915.7" y2="138.649" gradientUnits="userSpaceOnUse">
<stop stop-color="#EDEDED"/>
<stop offset="0.3049" stop-color="#CFCFCF"/>
<stop offset="0.5386" stop-color="#999999"/>
<stop offset="0.5731" stop-color="#ACACAC"/>
<stop offset="0.6328" stop-color="#C7C7C7"/>
<stop offset="0.6983" stop-color="#DBDBDB"/>
<stop offset="0.7718" stop-color="#EAEAEA"/>
<stop offset="0.8597" stop-color="#F2F2F2"/>
<stop offset="1" stop-color="#F5F5F5"/>
</linearGradient>
<linearGradient id="paint3_linear_285_13" x1="597.721" y1="-8.73271" x2="915.7" y2="138.649" gradientUnits="userSpaceOnUse">
<stop stop-color="#EDEDED"/>
<stop offset="0.3049" stop-color="#CFCFCF"/>
<stop offset="0.5386" stop-color="#999999"/>
<stop offset="0.5731" stop-color="#ACACAC"/>
<stop offset="0.6328" stop-color="#C7C7C7"/>
<stop offset="0.6983" stop-color="#DBDBDB"/>
<stop offset="0.7718" stop-color="#EAEAEA"/>
<stop offset="0.8597" stop-color="#F2F2F2"/>
<stop offset="1" stop-color="#F5F5F5"/>
</linearGradient>
<linearGradient id="paint4_linear_285_13" x1="597.721" y1="-8.73271" x2="915.7" y2="138.649" gradientUnits="userSpaceOnUse">
<stop stop-color="#EDEDED"/>
<stop offset="0.3049" stop-color="#CFCFCF"/>
<stop offset="0.5386" stop-color="#999999"/>
<stop offset="0.5731" stop-color="#ACACAC"/>
<stop offset="0.6328" stop-color="#C7C7C7"/>
<stop offset="0.6983" stop-color="#DBDBDB"/>
<stop offset="0.7718" stop-color="#EAEAEA"/>
<stop offset="0.8597" stop-color="#F2F2F2"/>
<stop offset="1" stop-color="#F5F5F5"/>
</linearGradient>
<linearGradient id="paint5_linear_285_13" x1="462.536" y1="-571.507" x2="651.36" y2="359.613" gradientUnits="userSpaceOnUse">
<stop stop-color="#EDEDED"/>
<stop offset="0.3049" stop-color="#CFCFCF"/>
<stop offset="0.5386" stop-color="#999999"/>
<stop offset="0.5731" stop-color="#ACACAC"/>
<stop offset="0.6328" stop-color="#C7C7C7"/>
<stop offset="0.6983" stop-color="#DBDBDB"/>
<stop offset="0.7718" stop-color="#EAEAEA"/>
<stop offset="0.8597" stop-color="#F2F2F2"/>
<stop offset="1" stop-color="#F5F5F5"/>
</linearGradient>
<linearGradient id="paint6_linear_285_13" x1="462.536" y1="-571.507" x2="651.36" y2="359.613" gradientUnits="userSpaceOnUse">
<stop stop-color="#EDEDED"/>
<stop offset="0.3049" stop-color="#CFCFCF"/>
<stop offset="0.5386" stop-color="#999999"/>
<stop offset="0.5731" stop-color="#ACACAC"/>
<stop offset="0.6328" stop-color="#C7C7C7"/>
<stop offset="0.6983" stop-color="#DBDBDB"/>
<stop offset="0.7718" stop-color="#EAEAEA"/>
<stop offset="0.8597" stop-color="#F2F2F2"/>
<stop offset="1" stop-color="#F5F5F5"/>
</linearGradient>
<linearGradient id="paint7_linear_285_13" x1="462.536" y1="-571.507" x2="651.36" y2="359.613" gradientUnits="userSpaceOnUse">
<stop stop-color="#EDEDED"/>
<stop offset="0.3049" stop-color="#CFCFCF"/>
<stop offset="0.5386" stop-color="#999999"/>
<stop offset="0.5731" stop-color="#ACACAC"/>
<stop offset="0.6328" stop-color="#C7C7C7"/>
<stop offset="0.6983" stop-color="#DBDBDB"/>
<stop offset="0.7718" stop-color="#EAEAEA"/>
<stop offset="0.8597" stop-color="#F2F2F2"/>
<stop offset="1" stop-color="#F5F5F5"/>
</linearGradient>
<linearGradient id="paint8_linear_285_13" x1="462.536" y1="-571.507" x2="651.36" y2="359.613" gradientUnits="userSpaceOnUse">
<stop stop-color="#EDEDED"/>
<stop offset="0.3049" stop-color="#CFCFCF"/>
<stop offset="0.5386" stop-color="#999999"/>
<stop offset="0.5731" stop-color="#ACACAC"/>
<stop offset="0.6328" stop-color="#C7C7C7"/>
<stop offset="0.6983" stop-color="#DBDBDB"/>
<stop offset="0.7718" stop-color="#EAEAEA"/>
<stop offset="0.8597" stop-color="#F2F2F2"/>
<stop offset="1" stop-color="#F5F5F5"/>
</linearGradient>
<linearGradient id="paint9_linear_285_13" x1="462.536" y1="-571.507" x2="651.36" y2="359.613" gradientUnits="userSpaceOnUse">
<stop stop-color="#EDEDED"/>
<stop offset="0.3049" stop-color="#CFCFCF"/>
<stop offset="0.5386" stop-color="#999999"/>
<stop offset="0.5731" stop-color="#ACACAC"/>
<stop offset="0.6328" stop-color="#C7C7C7"/>
<stop offset="0.6983" stop-color="#DBDBDB"/>
<stop offset="0.7718" stop-color="#EAEAEA"/>
<stop offset="0.8597" stop-color="#F2F2F2"/>
<stop offset="1" stop-color="#F5F5F5"/>
</linearGradient>
<linearGradient id="paint10_linear_285_13" x1="462.536" y1="-571.507" x2="651.36" y2="359.613" gradientUnits="userSpaceOnUse">
<stop stop-color="#EDEDED"/>
<stop offset="0.3049" stop-color="#CFCFCF"/>
<stop offset="0.5386" stop-color="#999999"/>
<stop offset="0.5731" stop-color="#ACACAC"/>
<stop offset="0.6328" stop-color="#C7C7C7"/>
<stop offset="0.6983" stop-color="#DBDBDB"/>
<stop offset="0.7718" stop-color="#EAEAEA"/>
<stop offset="0.8597" stop-color="#F2F2F2"/>
<stop offset="1" stop-color="#F5F5F5"/>
</linearGradient>
<linearGradient id="paint11_linear_285_13" x1="462.536" y1="-571.507" x2="651.36" y2="359.613" gradientUnits="userSpaceOnUse">
<stop stop-color="#EDEDED"/>
<stop offset="0.3049" stop-color="#CFCFCF"/>
<stop offset="0.5386" stop-color="#999999"/>
<stop offset="0.5731" stop-color="#ACACAC"/>
<stop offset="0.6328" stop-color="#C7C7C7"/>
<stop offset="0.6983" stop-color="#DBDBDB"/>
<stop offset="0.7718" stop-color="#EAEAEA"/>
<stop offset="0.8597" stop-color="#F2F2F2"/>
<stop offset="1" stop-color="#F5F5F5"/>
</linearGradient>
<linearGradient id="paint12_linear_285_13" x1="462.536" y1="-571.507" x2="651.36" y2="359.613" gradientUnits="userSpaceOnUse">
<stop stop-color="#EDEDED"/>
<stop offset="0.3049" stop-color="#CFCFCF"/>
<stop offset="0.5386" stop-color="#999999"/>
<stop offset="0.5731" stop-color="#ACACAC"/>
<stop offset="0.6328" stop-color="#C7C7C7"/>
<stop offset="0.6983" stop-color="#DBDBDB"/>
<stop offset="0.7718" stop-color="#EAEAEA"/>
<stop offset="0.8597" stop-color="#F2F2F2"/>
<stop offset="1" stop-color="#F5F5F5"/>
</linearGradient>
<linearGradient id="paint13_linear_285_13" x1="462.536" y1="-571.507" x2="651.36" y2="359.613" gradientUnits="userSpaceOnUse">
<stop stop-color="#EDEDED"/>
<stop offset="0.3049" stop-color="#CFCFCF"/>
<stop offset="0.5386" stop-color="#999999"/>
<stop offset="0.5731" stop-color="#ACACAC"/>
<stop offset="0.6328" stop-color="#C7C7C7"/>
<stop offset="0.6983" stop-color="#DBDBDB"/>
<stop offset="0.7718" stop-color="#EAEAEA"/>
<stop offset="0.8597" stop-color="#F2F2F2"/>
<stop offset="1" stop-color="#F5F5F5"/>
</linearGradient>
</defs>
</svg>
