<svg width="39" height="39" viewBox="0 0 39 39" fill="none" xmlns="http://www.w3.org/2000/svg">
<rect width="39" height="39" rx="10" fill="#F3F3F3"/>
<path fill-rule="evenodd" clip-rule="evenodd" d="M13.25 24.5C13.25 23.8096 13.8097 23.25 14.5 23.25H24.5C25.1904 23.25 25.75 23.8096 25.75 24.5C25.75 25.1904 25.1904 25.75 24.5 25.75H14.5C13.8097 25.75 13.25 25.1904 13.25 24.5ZM13.25 17C13.25 16.3097 13.8097 15.75 14.5 15.75H24.5C25.1904 15.75 25.75 16.3097 25.75 17C25.75 17.6904 25.1904 18.25 24.5 18.25H14.5C13.8097 18.25 13.25 17.6904 13.25 17ZM14.5 10.75V10.8084C14.358 10.8205 14.2213 10.8351 14.0903 10.8527C13.2709 10.9628 12.4854 11.2113 11.8484 11.8484C11.2113 12.4854 10.9629 13.2709 10.8527 14.0903C10.7499 14.8548 10.7499 15.8096 10.75 16.9177V24.5823C10.7499 25.6904 10.7499 26.6451 10.8527 27.4098C10.9629 28.2291 11.2113 29.0146 11.8484 29.6516C12.2632 30.0665 12.7409 30.3165 13.25 30.4709V30.75C13.25 31.4404 13.8097 32 14.5 32C15.1904 32 15.75 31.4404 15.75 30.75V30.7449C16.1169 30.75 16.5068 30.75 16.9177 30.75H22.0823C22.4933 30.75 22.8831 30.75 23.25 30.7449V30.75C23.25 31.4404 23.8096 32 24.5 32C25.1904 32 25.75 31.4404 25.75 30.75V30.4709C26.2591 30.3165 26.7369 30.0665 27.1516 29.6516C27.7888 29.0146 28.0371 28.2291 28.1474 27.4098C28.2501 26.6451 28.2501 25.6904 28.25 24.5823V16.9177C28.2501 15.8096 28.2501 14.8548 28.1474 14.0903C28.0371 13.2709 27.7888 12.4854 27.1516 11.8484C26.5146 11.2113 25.7291 10.9628 24.9098 10.8527C24.7788 10.8351 24.642 10.8205 24.5 10.8084V10.75C24.5 8.67894 22.8211 7 20.75 7H18.25C16.1789 7 14.5 8.67894 14.5 10.75ZM18.25 9.5C17.5596 9.5 17 10.0597 17 10.75H22C22 10.0597 21.4404 9.5 20.75 9.5H18.25Z" fill="#070707"/>
<path d="M29.6954 15C29.6221 15 29.5587 14.9767 29.5054 14.93C29.4587 14.8833 29.4354 14.8233 29.4354 14.75V14.04C29.4354 13.9933 29.4487 13.9233 29.4754 13.83C29.5021 13.73 29.5721 13.6367 29.6854 13.55L30.7254 12.53C31.2587 12.1233 31.6954 11.78 32.0354 11.5C32.3821 11.2133 32.6387 10.96 32.8054 10.74C32.9721 10.52 33.0554 10.3133 33.0554 10.12C33.0554 9.89333 32.9954 9.70667 32.8754 9.56C32.7621 9.40667 32.5621 9.33 32.2754 9.33C32.0821 9.33 31.9187 9.37333 31.7854 9.46C31.6587 9.54 31.5621 9.64667 31.4954 9.78C31.4287 9.91333 31.3821 10.05 31.3554 10.19C31.3287 10.2767 31.2821 10.3367 31.2154 10.37C31.1554 10.4033 31.0887 10.42 31.0154 10.42H29.7654C29.7054 10.42 29.6554 10.4 29.6154 10.36C29.5754 10.32 29.5554 10.27 29.5554 10.21C29.5621 9.89 29.6287 9.59 29.7554 9.31C29.8887 9.03 30.0721 8.78333 30.3054 8.57C30.5454 8.35 30.8287 8.18 31.1554 8.06C31.4887 7.94 31.8621 7.88 32.2754 7.88C32.8421 7.88 33.3221 7.97 33.7154 8.15C34.1154 8.33 34.4187 8.58333 34.6254 8.91C34.8321 9.23 34.9354 9.60667 34.9354 10.04C34.9354 10.3667 34.8621 10.6733 34.7154 10.96C34.5754 11.24 34.3721 11.51 34.1054 11.77C33.8454 12.0233 33.5354 12.2867 33.1754 12.56L32.2554 13.49H34.8254C34.8987 13.49 34.9587 13.5133 35.0054 13.56C35.0587 13.6067 35.0854 13.6667 35.0854 13.74V14.75C35.0854 14.8233 35.0587 14.8833 35.0054 14.93C34.9587 14.9767 34.8987 15 34.8254 15H29.6954Z" fill="#070707"/>
</svg>
