<svg width="39" height="39" viewBox="0 0 39 39" fill="none" xmlns="http://www.w3.org/2000/svg">
<rect width="39" height="39" rx="10" fill="#F3F3F3"/>
<path d="M24.0042 11.5046C24.0042 13.9924 21.9874 16.0091 19.4996 16.0091C17.0117 16.0091 14.9949 13.9924 14.9949 11.5046C14.9949 9.01676 17.0117 7 19.4996 7C21.9874 7 24.0042 9.01676 24.0042 11.5046Z" fill="#070707"/>
<path d="M13.2593 15.0908C15.3674 16.5868 17.5048 17.3682 19.4996 17.3682V23.5292H14.6683C14.7053 21.5858 14.8627 20.8955 15.0357 20.1592C15.0357 20.1592 12.3933 18.6283 11.5266 18.0075C10.6598 17.3867 9.92387 16.8353 10.4434 15.6106C10.9631 14.386 12.2447 14.3707 13.2593 15.0908Z" fill="#070707"/>
<path d="M17.6394 28.1412C16.2381 27.7483 15.3967 26.3077 15.1511 25.6366L13.6778 27.9611C12.6137 27.6664 12.0055 27.9611 11.6315 28.3212C11.1307 28.8035 11.0368 29.358 11.0422 29.6963C11.0477 30.0346 11.1765 30.7964 12.4337 31.4643C14.0052 32.2992 14.8237 32.0045 15.3475 31.6116C15.7928 31.2777 15.9696 30.9077 15.9696 30.5476L17.6394 28.1412Z" fill="#070707"/>
<path d="M25.7396 15.0908C23.6316 16.5868 21.4941 17.3682 19.4994 17.3682V23.5292H24.3307C24.2937 21.5858 24.1363 20.8955 23.9632 20.1592C23.9632 20.1592 26.6056 18.6283 27.4723 18.0075C28.3391 17.3867 29.0751 16.8353 28.5555 15.6106C28.0359 14.386 26.7543 14.3707 25.7396 15.0908Z" fill="#070707"/>
<path d="M21.3596 28.1412C22.7609 27.7483 23.6023 26.3077 23.8478 25.6366L25.3211 27.9611C26.3852 27.6664 26.9934 27.9611 27.3674 28.3212C27.8682 28.8035 27.9622 29.358 27.9567 29.6963C27.9513 30.0346 27.8225 30.7964 26.5653 31.4643C24.9937 32.2992 24.1752 32.0045 23.6514 31.6116C23.2062 31.2777 23.0293 30.9077 23.0293 30.5476L21.3596 28.1412Z" fill="#070707"/>
</svg>
