<svg width="39" height="39" viewBox="0 0 39 39" fill="none" xmlns="http://www.w3.org/2000/svg">
<rect width="39" height="39" rx="10" fill="#F3F3F3"/>
<path d="M16.0546 17.7143C17.031 18.526 18.3329 19.013 19.7974 19.013C21.2619 19.013 22.5636 18.526 23.54 17.7143C25.0045 16.5779 25.8181 14.9545 25.8181 13.0065C25.8181 11.5455 25.33 10.0844 24.3536 9.11038C23.2146 7.81168 21.5874 7 19.7974 7C18.0074 7 16.2174 7.81168 15.241 9.11038C14.2647 10.0844 13.6138 11.5455 13.6138 13.0065C13.6138 14.9545 14.5901 16.5779 16.0546 17.7143Z" fill="#070707"/>
<path d="M23.0516 21.6103C22.7261 21.6103 22.4008 21.6103 22.0754 21.6103H17.1935C16.868 21.6103 16.5426 21.6103 16.2172 21.6103C12.7999 22.0974 10.1963 25.0194 10.1963 28.4284C10.1963 29.4025 10.6845 30.2142 11.3354 30.5389C12.4745 31.1883 14.7526 32 19.4716 32C24.1907 32 26.4689 31.1883 27.608 30.5389C28.4216 30.0519 28.7471 29.2402 28.7471 28.4284C29.2352 25.0194 26.4689 22.0974 23.0516 21.6103Z" fill="#070707"/>
<path d="M30.2363 15.1C29.7163 15.1 29.273 15.04 28.9063 14.92C28.5397 14.7933 28.2397 14.6333 28.0063 14.44C27.773 14.24 27.5997 14.03 27.4863 13.81C27.373 13.5833 27.313 13.3667 27.3063 13.16C27.3063 13.1 27.3263 13.05 27.3663 13.01C27.413 12.97 27.4663 12.95 27.5263 12.95H28.8263C28.9063 12.95 28.9697 12.9667 29.0163 13C29.063 13.0267 29.1063 13.0733 29.1463 13.14C29.1997 13.2667 29.2763 13.37 29.3763 13.45C29.483 13.53 29.6097 13.5867 29.7563 13.62C29.903 13.6467 30.063 13.66 30.2363 13.66C30.5763 13.66 30.8397 13.5833 31.0263 13.43C31.2197 13.27 31.3163 13.0533 31.3163 12.78C31.3163 12.4933 31.2263 12.29 31.0463 12.17C30.8663 12.0433 30.6097 11.98 30.2763 11.98H29.1663C29.093 11.98 29.033 11.9567 28.9863 11.91C28.9397 11.8633 28.9163 11.8033 28.9163 11.73V11.17C28.9163 11.09 28.933 11.02 28.9663 10.96C28.9997 10.9 29.0363 10.8567 29.0763 10.83L30.7163 9.44H27.9363C27.8697 9.44 27.8097 9.41667 27.7563 9.37C27.7097 9.32333 27.6863 9.26333 27.6863 9.19V8.25C27.6863 8.17667 27.7097 8.11667 27.7563 8.07C27.8097 8.02333 27.8697 8 27.9363 8H32.5363C32.6097 8 32.6697 8.02333 32.7163 8.07C32.7697 8.11667 32.7963 8.17667 32.7963 8.25V9.1C32.7963 9.17333 32.7797 9.24 32.7463 9.3C32.713 9.35333 32.6763 9.39667 32.6363 9.43L31.1163 10.84L31.1863 10.86C31.5663 10.9067 31.9063 11.01 32.2063 11.17C32.5063 11.3233 32.743 11.54 32.9163 11.82C33.0897 12.1 33.1763 12.4567 33.1763 12.89C33.1763 13.3433 33.0463 13.7367 32.7863 14.07C32.533 14.3967 32.1863 14.65 31.7463 14.83C31.3063 15.01 30.803 15.1 30.2363 15.1Z" fill="#070707"/>
</svg>
