<svg width="39" height="39" viewBox="0 0 39 39" fill="none" xmlns="http://www.w3.org/2000/svg">
<rect width="39" height="39" rx="10" fill="#F3F3F3"/>
<path d="M16.1644 11.1107V11.7114H17.1785V11.1086C17.1785 10.7455 17.4728 10.4511 17.836 10.4511H19.5V9.43701H17.8381C16.9137 9.43701 16.1644 10.1864 16.1644 11.1107Z" fill="#070707"/>
<path d="M22.8356 11.1107V11.7114H21.8215V11.1086C21.8215 10.7455 21.5272 10.4511 21.164 10.4511H19.5V9.43701H21.1619C22.0863 9.43701 22.8356 10.1864 22.8356 11.1107Z" fill="#070707"/>
<path fill-rule="evenodd" clip-rule="evenodd" d="M8.22772 19.5183L9.3042 14.4947C9.58768 13.1718 10.7568 12.2267 12.1097 12.2267H26.8903C28.2432 12.2267 29.4123 13.1718 29.6958 14.4947L30.7723 19.5183L31.0327 20.1136C31.5669 20.1136 32 20.5466 32 21.0808C32 21.615 31.5669 22.0481 31.0327 22.0481L30.7723 22.6061L29.7549 27.1358C29.4362 28.5546 28.1764 29.5629 26.7222 29.5629H12.2778C10.8236 29.5629 9.56375 28.5546 9.24507 27.1358L8.22772 22.6061L7.96725 22.0481C7.43305 22.0481 7 21.615 7 21.0808C7 20.5466 7.43305 20.1136 7.96725 20.1136L8.22772 19.5183ZM14.5833 14.2122C15.248 14.4615 16.7069 16.1396 17.3532 16.9475C17.6254 16.8822 18.4357 16.7464 19.5 16.726C20.5643 16.7464 21.3747 16.8822 21.6468 16.9475C22.2931 16.1396 23.752 14.4615 24.4168 14.2122C24.6937 14.6508 25.1645 16.3104 24.8322 19.4404C26.7887 22.285 25.9728 27.4732 19.5 27.4732C13.0271 27.4732 12.2113 22.285 14.1679 19.4404C13.8355 16.3104 14.3063 14.6508 14.5833 14.2122Z" fill="#070707"/>
</svg>
